<?xml version="1.0" encoding="utf-8"?>
<!-- Generator: Adobe Illustrator 21.0.2, SVG Export Plug-In . SVG Version: 6.00 Build 0)  -->
<svg version="1.1"
	 id="svg2" inkscape:export-filename="/home/alecive/Scrivania/firefoxTest1.png" inkscape:export-xdpi="100" inkscape:export-ydpi="100" inkscape:version="0.48.3.1 r9886" sodipodi:docname="google-keep.svg" xmlns:cc="http://creativecommons.org/ns#" xmlns:dc="http://purl.org/dc/elements/1.1/" xmlns:inkscape="http://www.inkscape.org/namespaces/inkscape" xmlns:rdf="http://www.w3.org/1999/02/22-rdf-syntax-ns#" xmlns:sodipodi="http://sodipodi.sourceforge.net/DTD/sodipodi-0.dtd" xmlns:svg="http://www.w3.org/2000/svg"
	 xmlns="http://www.w3.org/2000/svg" xmlns:xlink="http://www.w3.org/1999/xlink" x="0px" y="0px" viewBox="0 0 268 268"
	 style="enable-background:new 0 0 268 268;" xml:space="preserve">
<style type="text/css">
	.st0{fill:#FFFFFF;}
	.st1{display:none;fill-opacity:0.3922;}
</style>
<sodipodi:namedview  bordercolor="#666666" borderopacity="1.0" id="base" inkscape:current-layer="svg2" inkscape:cx="21.395186" inkscape:cy="320.70975" inkscape:document-units="px" inkscape:guide-bbox="true" inkscape:object-nodes="true" inkscape:object-paths="true" inkscape:pageopacity="0.0" inkscape:pageshadow="2" inkscape:snap-intersection-paths="true" inkscape:snap-nodes="true" inkscape:snap-smooth-nodes="true" inkscape:window-height="744" inkscape:window-maximized="1" inkscape:window-width="1305" inkscape:window-x="61" inkscape:window-y="24" inkscape:zoom="0.54319586" pagecolor="#ffffff" showgrid="false" showguides="true">
	</sodipodi:namedview>
<g id="layer1" transform="translate(0,-540.36218)" inkscape:groupmode="layer" inkscape:label="Livello 1">
</g>
<g id="g10537">
	<g id="g10528">
		<g id="g10520">
			<path id="path3064" inkscape:connector-curvature="0" sodipodi:nodetypes="cccccccccccccccccccccccccccccccccc" class="st0" d="
				M169.1,155.2c3.1-11.7,18.7-16.5,23.6-28.5c17.2-26.6,12.1-65-11.7-86C160.8,20.2,127,16.9,102,29.8C75.6,44,59.8,76.2,67,105.8
				c3.7,17.8,15.5,33.1,30.2,43.5c4.7,3-1.6,13.2,6.4,10.8c21.9,0,43.7,0,65.6,0C169.1,158.4,169.1,156.8,169.1,155.2L169.1,155.2z
				 M168.8,185.4c-0.9-3.1,1.8-9.9-3.4-8.5c-21.9,0-43.8,0-65.7,0c-0.2,5.6-0.4,11.3-0.6,16.9c23.4,0,46.7,0,70.1,0
				C169.1,191.1,168.9,188.2,168.8,185.4L168.8,185.4z M169.1,220.1c-0.9-2.8,2.3-9.8-2.5-8.7c-22.5,0-45,0-67.4,0
				c0,5.8,0,11.7,0,17.5c23.3,0,46.6,0,69.9,0C169.1,225.9,169.1,223,169.1,220.1z M100.3,245.2l-17.6,0c0-28.3,0-56.7,0-85
				C53.9,138.6,40.4,98.2,52.5,64C63.9,28.8,99.9,2.7,137.1,5.4c43.7-0.3,83.2,39.5,82.6,83.2c1.7,26.4-11.4,51.9-31,68.9
				c-4,2.1-3.4,6.1-3.3,10c0,25.9,0,51.8,0,77.7h-17.6v17.6h-67.6L100.3,245.2z"/>
		</g>
	</g>
</g>
<path id="path3848" inkscape:connector-curvature="0" sodipodi:nodetypes="cccccccccccccccccccccccccccccccsc" class="st1" d="
	M130.5,16.2c-31.7,0.7-61.3,23.6-71,53.8c-10.4,29.4-0.2,63.8,23,84.2c0.2,0.2,0.4,0.3,0.7,0.5c0.1,0.1,0.1,0.1,0.2,0.2
	c0.5,0.5,1,0.9,1.6,1.4c0.1,0.1,0.2,0.1,0.3,0.2c0,0,0,0,0,0c0.1,0.1,0.2,0.1,0.3,0.2c0,0,0,0,0,0c0.1,0.1,0.2,0.1,0.3,0.2
	c0,0,0,0,0,0c0,0,0,0,0,0c0.1,0.1,0.1,0.1,0.2,0.2c0.1,0.1,0.2,0.1,0.3,0.2c0.3,0.2,0.5,0.4,0.8,0.7c0,0,0,0,0,0v77.7l366.1,366.1
	h61.8c0.2-5.2,0.4-10.3,0.6-15.5l15.5-0.6v-71.1c-0.1-3.5-0.7-7.2,3-9.1c18-15.6,30-38.9,28.4-63c0.2-20.2-8.8-39.5-23-53.6
	c-0.1-0.1-0.3-0.2-0.4-0.4L195.7,45.6c-1.7-1.8-3.4-3.7-5.1-5.5c-0.1-0.1-0.2-0.3-0.4-0.4c-14-14.3-33.2-23.5-53.4-23.4
	C134.7,16.2,132.6,16.2,130.5,16.2L130.5,16.2z"/>
<path id="path11978" inkscape:connector-curvature="0" class="st1" d="M190.6,40.1c1.5,1.5,2.9,3.1,4.3,4.7c1.6,1.9,3.1,3.9,4.5,5.9
	s2.7,4.1,3.9,6.3s2.3,4.4,3.3,6.6c1,2.3,1.8,4.6,2.6,6.9s1.4,4.7,1.9,7.1s0.9,4.8,1.2,7.3s0.3,5,0.3,7.5c0.2,3,0.2,6,0,9
	s-0.6,5.9-1.2,8.8s-1.4,5.8-2.3,8.6s-2.1,5.6-3.3,8.3s-2.7,5.3-4.2,7.9c-1.6,2.6-3.2,5-5.1,7.4s-3.8,4.7-5.8,6.8s-4.2,4.2-6.4,6.2
	c-0.9,0.5-1.5,1-2,1.7s-0.7,1.4-0.9,2.2c-0.3,1.6-0.2,3.4-0.1,5.2v71.1h-16.1v16.1h-61.8l350,350h61.8c0.2-5.2,0.4-10.3,0.6-15.5
	l15.5-0.6v-71.1c-0.1-3.5-0.7-7.2,3-9.1c18-15.6,30-38.9,28.4-63c0.2-20.2-8.8-39.5-23-53.6c-0.1-0.1-0.3-0.2-0.4-0.4L195.7,45.6
	C194.1,43.8,192.3,41.9,190.6,40.1z M103.2,251.8v-16.1H87.1L103.2,251.8z"/>
<path id="path11980" inkscape:connector-curvature="0" sodipodi:nodetypes="ccccc" class="st1" d="M-82,224.9L343.2,650V524.9
	c0,0-300-300-300-300L-82,224.9z"/>
</svg>
