<?xml version="1.0" encoding="utf-8"?>
<!-- Generator: Adobe Illustrator 21.0.0, SVG Export Plug-In . SVG Version: 6.00 Build 0)  -->
<svg version="1.1" id="Layer_1" xmlns="http://www.w3.org/2000/svg" xmlns:xlink="http://www.w3.org/1999/xlink" x="0px" y="0px"
	 viewBox="0 0 220 200" style="enable-background:new 0 0 220 200;" xml:space="preserve">
<style type="text/css">
	.st0{fill:#FFFFFF;}
	.st1{fill:#36A9E1;}
	.st2{fill:#2954C5;}
	.st3{fill:#29B6F6;}
	.st4{fill:#3367D5;}
	.st5{fill:#315FBD;}
	.st6{fill:#81D3F9;}
	.st7{fill:#EDEDED;}
</style>
<g>
	
		<image style="overflow:visible;opacity:0.5;" width="841" height="839" xlink:href="9F3B3B6DC76AD90B.png"  transform="matrix(0.24 0 0 0.24 -474.3046 0.36)">
	</image>
	<g>
		<circle class="st0" cx="-373.5" cy="100" r="97.6"/>
	</g>
</g>
<g>
	<path class="st1" d="M-373.5,124.7c-0.4,0-0.9-0.2-1.2-0.5l-46-46c-0.7-0.7-0.7-1.7,0-2.4c0.7-0.7,1.7-0.7,2.4,0l44.8,44.8
		l44.8-44.8c0.7-0.7,1.7-0.7,2.4,0c0.7,0.7,0.7,1.7,0,2.4l-46,46C-372.6,124.5-373,124.7-373.5,124.7z"/>
</g>
<g id="jdTIpd_1_">
	
		<image style="overflow:visible;" width="512" height="512" id="jdTIpd" xlink:href="9F3B3B6DC76AD909.jpg"  transform="matrix(1 0 0 1 768.4956 -364.3705)">
	</image>
</g>
<path class="st2" d="M219.3,74.5v1.2H2.5v-1.2h0c0-1.5,0.7-3,2-3.8l103.9-67c1.5-0.9,3.3-0.9,4.8,0l103.9,67
	C218.5,71.5,219.3,73,219.3,74.5L219.3,74.5z"/>
<path class="st3" d="M110.9,140.3L16,196.9c-7.4,0-13.5-6.1-13.5-13.5V75.7L110.9,140.3z"/>
<polygon class="st4" points="219.3,75.7 110.9,140.3 2.5,75.7 "/>
<polygon class="st5" points="112.1,101.9 151.1,140.9 219.3,75.7 112.1,74.2 "/>
<path class="st1" d="M2.9,72.8L2.9,72.8z"/>
<path class="st6" d="M219.3,75.7v107.7c0,7.4-6.1,13.5-13.5,13.5H16l94.9-56.6L219.3,75.7z"/>
<g>
	<polygon class="st7" points="112.1,101.9 68.1,57.9 81.9,44.1 112.1,74.2 177.3,9 191.1,22.8 	"/>
</g>
</svg>
